<?xml version="1.0" standalone="no"?>
<!DOCTYPE svg PUBLIC "-//W3C//DTD SVG 20010904//EN"
 "http://www.w3.org/TR/2001/REC-SVG-20010904/DTD/svg10.dtd">
<svg version="1.0" xmlns="http://www.w3.org/2000/svg"
 width="320.000000pt" height="320.000000pt" viewBox="0 0 320.000000 320.000000"
 preserveAspectRatio="xMidYMid meet">

<g transform="translate(0.000000,320.000000) scale(0.100000,-0.100000)"
fill="#000000" stroke="none">
<path d="M0 1600 l0 -1600 1600 0 1600 0 0 1600 0 1600 -1600 0 -1600 0 0
-1600z m852 321 c18 -7 31 -32 61 -117 108 -306 198 -394 342 -339 17 6 17 5
-2 -9 -13 -9 -45 -20 -72 -23 -97 -11 -191 56 -255 185 -14 28 -31 52 -36 52
-20 0 -84 -31 -117 -56 -50 -38 -67 -68 -53 -93 10 -20 8 -21 -36 -21 -45 0
-46 1 -31 18 20 21 145 311 154 353 4 22 1 34 -13 44 -18 14 -18 14 8 15 15 0
37 -4 50 -9z m1120 -40 c13 -11 46 -58 72 -105 54 -95 50 -95 94 -12 16 30 19
43 10 53 -8 10 -3 13 28 13 l38 0 -21 -19 c-11 -11 -37 -46 -57 -79 -31 -52
-36 -68 -36 -121 0 -34 5 -71 10 -82 10 -18 7 -19 -42 -18 -29 0 -47 3 -40 6
8 3 12 29 12 80 0 72 -2 80 -45 152 -44 75 -71 108 -110 136 -19 13 -17 14 21
15 26 0 50 -7 66 -19z m-869 -58 c-10 -3 -13 -39 -13 -128 0 -146 11 -170 76
-168 64 2 74 24 74 162 0 78 -4 121 -12 129 -9 9 -4 12 22 12 26 0 31 -3 22
-12 -8 -8 -12 -48 -12 -115 0 -161 -25 -200 -123 -190 -41 3 -56 11 -79 36
-27 30 -28 35 -28 144 0 75 -4 117 -12 125 -9 9 0 12 43 11 29 0 48 -3 42 -6z
m448 -31 c16 -18 29 -39 29 -48 0 -26 -29 -72 -50 -79 -11 -3 -20 -10 -20 -14
0 -15 57 -86 104 -129 59 -55 101 -72 168 -71 l53 1 -45 12 c-113 31 -130 60
-130 218 0 93 -3 120 -16 132 -14 15 -5 16 95 16 l111 0 0 -26 c0 -23 -2 -24
-15 -10 -17 17 -72 30 -102 24 -14 -3 -19 -14 -21 -61 -2 -31 -1 -57 0 -57 2
0 21 9 43 20 69 35 139 21 184 -36 16 -20 21 -41 21 -82 0 -53 -2 -57 -46
-100 -58 -55 -98 -72 -171 -72 -100 0 -175 47 -266 168 -51 67 -71 66 -75 -4
-2 -37 2 -56 13 -68 15 -15 12 -16 -40 -16 -51 0 -55 1 -41 16 13 12 16 40 16
140 0 72 -5 134 -11 146 -11 20 -9 20 86 16 95 -4 98 -5 126 -36z m828 -4 c10
-24 35 -86 55 -138 39 -102 50 -120 81 -138 18 -10 16 -11 -16 -12 -45 0 -80
26 -104 79 l-18 41 -58 0 c-48 0 -60 -4 -73 -22 -19 -27 -21 -74 -3 -81 6 -3
-8 -6 -32 -6 -38 -1 -42 1 -28 12 14 10 63 116 118 254 6 16 4 27 -7 38 -14
13 -11 15 26 15 39 0 42 -2 59 -42z m-1105 -454 c10 -4 16 -18 16 -36 0 -26
-3 -29 -27 -26 -22 2 -28 8 -29 28 -1 40 7 47 40 34z m423 -16 c3 6 9 12 14
12 5 0 3 -10 -6 -23 -8 -13 -12 -27 -8 -30 3 -4 2 -7 -4 -7 -6 0 -13 8 -16 18
-2 9 -8 26 -12 37 l-7 20 17 -20 c12 -14 19 -16 22 -7z m198 12 c3 -5 -2 -10
-12 -10 -15 0 -14 -2 5 -16 26 -18 21 -34 -11 -33 -21 0 -21 1 -2 8 19 8 19 8
-3 20 -19 10 -21 15 -11 27 13 16 25 18 34 4z m-528 -9 c17 14 16 8 -1 -25
-12 -23 -14 -24 -20 -9 -3 10 -9 25 -12 33 -5 12 -4 13 7 3 9 -9 16 -10 26 -2z
m151 -16 c7 -14 12 -27 12 -28 0 -1 -13 -2 -30 -2 -16 0 -30 1 -30 2 0 1 4 13
10 27 12 33 24 33 38 1z m100 0 c7 -14 12 -27 12 -28 0 -1 -15 -2 -34 -3 l-35
0 15 28 c18 35 27 35 42 3z m167 -25 c8 0 16 12 18 28 4 25 4 25 6 -5 1 -29
-2 -33 -24 -33 -22 0 -25 4 -24 33 2 30 2 30 6 5 2 -16 10 -28 18 -28z m190
30 c7 0 16 6 18 13 3 6 5 -4 5 -23 0 -19 -2 -29 -5 -22 -2 6 -11 12 -18 12 -7
0 -16 -6 -18 -12 -3 -7 -5 3 -5 22 0 19 2 29 5 23 2 -7 11 -13 18 -13z"/>
<path d="M778 1750 c-25 -60 -44 -110 -42 -110 3 0 21 8 42 19 20 10 54 21 75
25 31 6 37 11 32 24 -4 9 -15 41 -25 69 -33 92 -32 92 -82 -27z"/>
<path d="M1407 1814 c-4 -4 -7 -40 -7 -81 l0 -73 35 0 c47 0 75 29 75 78 0 25
-7 45 -18 55 -21 19 -74 32 -85 21z"/>
<path d="M1784 1716 c-17 -8 -41 -27 -53 -42 -19 -24 -22 -38 -19 -83 4 -45
10 -59 37 -83 76 -68 201 -6 201 99 0 41 -35 92 -75 109 -42 17 -51 17 -91 0z"/>
<path d="M2287 1708 l-25 -63 50 -3 c28 -2 52 -1 54 1 6 6 -39 127 -47 127 -4
0 -18 -28 -32 -62z"/>
<path d="M1258 1313 c7 -3 16 -2 19 1 4 3 -2 6 -13 5 -11 0 -14 -3 -6 -6z"/>
<path d="M1250 1290 c0 -5 7 -10 16 -10 8 0 12 5 9 10 -3 6 -10 10 -16 10 -5
0 -9 -4 -9 -10z"/>
<path d="M1490 1300 c0 -5 5 -10 10 -10 6 0 10 5 10 10 0 6 -4 10 -10 10 -5 0
-10 -4 -10 -10z"/>
<path d="M1590 1300 c0 -5 5 -10 11 -10 5 0 7 5 4 10 -3 6 -8 10 -11 10 -2 0
-4 -4 -4 -10z"/>
</g>
</svg>
